ffmpeg started on 2025-05-12 at 21:34:59
Report written to "D:\Convert\FFMetrics\reports\ssim_report-6.txt"
Log level: 32
Command line:
ffmpeg -hide_banner -nostdin -i "G:\\\xc0\xed\xe8\xec\xe5\\\xce\xed\xe3\xee\xe8\xed\xe3\xe8\\!_35_\xcb\xe5\xf2\xee_2024\\DreamCast-1\\\xd1\xe0\xec\xfb\xe9 \xf1\xe8\xeb\xfc\xed\xfb\xe9 \xe2\xee\xeb\xf8\xe5\xe1\xed\xe8\xea \xe0\xf0\xec\xe8\xe8 \xef\xee\xe2\xe5\xeb\xe8\xf2\xe5\xeb\xff \xe4\xe5\xec\xee\xed\xee\xe2 \xee\xea\xe0\xe7\xe0\xeb\xf1\xff \xf7\xe5\xeb\xee\xe2\xe5\xea\xee\xec\\DC_Maou_Gun_Saikyou_no_Majutsushi_wa_Ningen_datta_12_Telegram_HEVC.mkv" -i "G:\\\xc0\xed\xe8\xec\xe5\\\xce\xed\xe3\xee\xe8\xed\xe3\xe8\\!_35_\xcb\xe5\xf2\xee_2024\\DreamCast-1\\\xd1\xe0\xec\xfb\xe9 \xf1\xe8\xeb\xfc\xed\xfb\xe9 \xe2\xee\xeb\xf8\xe5\xe1\xed\xe8\xea \xe0\xf0\xec\xe8\xe8 \xef\xee\xe2\xe5\xeb\xe8\xf2\xe5\xeb\xff \xe4\xe5\xec\xee\xed\xee\xe2 \xee\xea\xe0\xe7\xe0\xeb\xf1\xff \xf7\xe5\xeb\xee\xe2\xe5\xea\xee\xec\\DC_Maou_Gun_Saikyou_no_Majutsushi_wa_Ningen_datta_12_Telegram.mp4" -lavfi "[0:v]settb=AVTB,setpts=PTS-STARTPTS,format=pix_fmts=yuv420p10,fps=24000/1001,scale=1920:1080:flags=bicubic[main];[1:v]settb=AVTB,setpts=PTS-STARTPTS,format=pix_fmts=yuv420p,fps=24000/1001,scale=1920:1080:flags=bicubic[ref];[main][ref]ssim=eof_action=endall:stats_file='D\\:/Convert/FFMetrics/logs/ssim_logfile-6.txt'" -f null -
Input #0, matroska,webm, from 'G:\Аниме\Онгоинги\!_35_Лето_2024\DreamCast-1\Самый сильный волшебник армии повелителя демонов оказался человеком\DC_Maou_Gun_Saikyou_no_Majutsushi_wa_Ningen_datta_12_Telegram_HEVC.mkv':
  Metadata:
    COMPATIBLE_BRANDS: isomiso2avc1mp41
    MAJOR_BRAND     : isom
    MINOR_VERSION   : 512
    ENCODER         : Lavf61.7.100
  Duration: 00:23:46.73, start: -0.021000, bitrate: 925 kb/s
  Stream #0:0: Video: hevc (Main 10), yuv420p10le(tv, bt709, progressive), 1920x1080 [SAR 1:1 DAR 16:9], 23.98 fps, 23.98 tbr, 1k tbn (default)
      Metadata:
        HANDLER_NAME    : VideoHandler
        VENDOR_ID       : [0][0][0][0]
        ENCODER         : Lavc61.19.100 libx265
        BPS             : 727670
        DURATION        : 00:23:46.591708333
        NUMBER_OF_FRAMES: 34204
        NUMBER_OF_BYTES : 129761065
        _STATISTICS_WRITING_APP: mkvpropedit v66.0.0 ('Josie') 64-bit
        _STATISTICS_WRITING_DATE_UTC: 2025-05-10 17:08:48
        _STATISTICS_TAGS: BPS DURATION NUMBER_OF_FRAMES NUMBER_OF_BYTES
  Stream #0:1: Audio: aac (LC), 48000 Hz, stereo, fltp (default)
      Metadata:
        HANDLER_NAME    : SoundHandler
        VENDOR_ID       : [0][0][0][0]
        ENCODER         : Lavc61.19.100 aac
        BPS             : 193328
        DURATION        : 00:23:46.730000000
        NUMBER_OF_FRAMES: 66879
        NUMBER_OF_BYTES : 34478421
        _STATISTICS_WRITING_APP: mkvpropedit v66.0.0 ('Josie') 64-bit
        _STATISTICS_WRITING_DATE_UTC: 2025-05-10 17:08:48
        _STATISTICS_TAGS: BPS DURATION NUMBER_OF_FRAMES NUMBER_OF_BYTES
Input #1, mov,mp4,m4a,3gp,3g2,mj2, from 'G:\Аниме\Онгоинги\!_35_Лето_2024\DreamCast-1\Самый сильный волшебник армии повелителя демонов оказался человеком\DC_Maou_Gun_Saikyou_no_Majutsushi_wa_Ningen_datta_12_Telegram.mp4':
  Metadata:
    major_brand     : isom
    minor_version   : 512
    compatible_brands: isomiso2avc1mp41
    encoder         : Lavf60.12.100
  Duration: 00:23:46.68, start: 0.000000, bitrate: 3557 kb/s
  Stream #1:0[0x1](und): Video: h264 (High) (avc1 / 0x31637661), yuv420p(tv, bt709, progressive), 1920x1080 [SAR 1:1 DAR 16:9], 3409 kb/s, 23.98 fps, 23.98 tbr, 24k tbn (default)
      Metadata:
        handler_name    : VideoHandler
        vendor_id       : [0][0][0][0]
        encoder         : Lavc60.26.100 h264_qsv
  Stream #1:1[0x2](und): Audio: aac (HE-AACv2) (mp4a / 0x6134706D), 48000 Hz, stereo, fltp, 144 kb/s (default)
      Metadata:
        handler_name    : SoundHandler
        vendor_id       : [0][0][0][0]
Stream mapping:
  Stream #0:0 (hevc) -> settb:default
  Stream #1:0 (h264) -> settb:default
  ssim:default -> Stream #0:0 (wrapped_avframe)
  Stream #0:1 -> #0:1 (aac (native) -> pcm_s16le (native))
Output #0, null, to 'pipe:':
  Metadata:
    COMPATIBLE_BRANDS: isomiso2avc1mp41
    MAJOR_BRAND     : isom
    MINOR_VERSION   : 512
    encoder         : Lavf61.7.100
  Stream #0:0: Video: wrapped_avframe, yuv420p10le(tv, bt709, progressive), 1920x1080 [SAR 1:1 DAR 16:9], q=2-31, 200 kb/s, 23.98 fps, 23.98 tbn
      Metadata:
        encoder         : Lavc61.19.100 wrapped_avframe
  Stream #0:1: Audio: pcm_s16le, 48000 Hz, stereo, s16, 1536 kb/s (default)
      Metadata:
        HANDLER_NAME    : SoundHandler
        VENDOR_ID       : [0][0][0][0]
        _STATISTICS_TAGS: BPS DURATION NUMBER_OF_FRAMES NUMBER_OF_BYTES
        BPS             : 193328
        DURATION        : 00:23:46.730000000
        NUMBER_OF_FRAMES: 66879
        NUMBER_OF_BYTES : 34478421
        _STATISTICS_WRITING_APP: mkvpropedit v66.0.0 ('Josie') 64-bit
        _STATISTICS_WRITING_DATE_UTC: 2025-05-10 17:08:48
        encoder         : Lavc61.19.100 pcm_s16le
frame=  155 fps=0.0 q=-0.0 size=N/A time=00:00:06.46 bitrate=N/A speed=12.6x    frame=  403 fps=389 q=-0.0 size=N/A time=00:00:16.80 bitrate=N/A speed=16.2x    frame=  606 fps=388 q=-0.0 size=N/A time=00:00:25.27 bitrate=N/A speed=16.2x    frame=  849 fps=411 q=-0.0 size=N/A time=00:00:35.41 bitrate=N/A speed=17.1x    frame= 1085 fps=419 q=-0.0 size=N/A time=00:00:45.25 bitrate=N/A speed=17.5x    frame= 1319 fps=426 q=-0.0 size=N/A time=00:00:55.01 bitrate=N/A speed=17.8x    frame= 1570 fps=434 q=-0.0 size=N/A time=00:01:05.48 bitrate=N/A speed=18.1x    frame= 1800 fps=435 q=-0.0 size=N/A time=00:01:15.07 bitrate=N/A speed=18.1x    frame= 1994 fps=429 q=-0.0 size=N/A time=00:01:23.16 bitrate=N/A speed=17.9x    frame= 2183 fps=422 q=-0.0 size=N/A time=00:01:31.04 bitrate=N/A speed=17.6x    frame= 2424 fps=426 q=-0.0 size=N/A time=00:01:41.10 bitrate=N/A speed=17.8x    frame= 2646 fps=427 q=-0.0 size=N/A time=00:01:50.36 bitrate=N/A speed=17.8x    frame= 2845 fps=424 q=-0.0 size=N/A time=00:01:58.66 bitrate=N/A speed=17.7x    frame= 3036 fps=420 q=-0.0 size=N/A time=00:02:06.62 bitrate=N/A speed=17.5x    frame= 3226 fps=416 q=-0.0 size=N/A time=00:02:14.55 bitrate=N/A speed=17.4x    frame= 3421 fps=415 q=-0.0 size=N/A time=00:02:22.68 bitrate=N/A speed=17.3x    frame= 3675 fps=419 q=-0.0 size=N/A time=00:02:33.27 bitrate=N/A speed=17.5x    frame= 3886 fps=418 q=-0.0 size=N/A time=00:02:42.07 bitrate=N/A speed=17.4x    frame= 4120 fps=420 q=-0.0 size=N/A time=00:02:51.83 bitrate=N/A speed=17.5x    frame= 4350 fps=421 q=-0.0 size=N/A time=00:03:01.43 bitrate=N/A speed=17.6x    frame= 4540 fps=419 q=-0.0 size=N/A time=00:03:09.35 bitrate=N/A speed=17.5x    frame= 4782 fps=421 q=-0.0 size=N/A time=00:03:19.44 bitrate=N/A speed=17.6x    frame= 5015 fps=422 q=-0.0 size=N/A time=00:03:29.16 bitrate=N/A speed=17.6x    frame= 5236 fps=423 q=-0.0 size=N/A time=00:03:38.38 bitrate=N/A speed=17.6x    frame= 5491 fps=426 q=-0.0 size=N/A time=00:03:49.02 bitrate=N/A speed=17.7x    frame= 5751 fps=429 q=-0.0 size=N/A time=00:03:59.86 bitrate=N/A speed=17.9x    frame= 5997 fps=430 q=-0.0 size=N/A time=00:04:10.12 bitrate=N/A speed=  18x    frame= 6232 fps=431 q=-0.0 size=N/A time=00:04:19.92 bitrate=N/A speed=  18x    frame= 6470 fps=433 q=-0.0 size=N/A time=00:04:29.85 bitrate=N/A speed=  18x    frame= 6716 fps=434 q=-0.0 size=N/A time=00:04:40.11 bitrate=N/A speed=18.1x    frame= 6961 fps=435 q=-0.0 size=N/A time=00:04:50.33 bitrate=N/A speed=18.2x    frame= 7191 fps=435 q=-0.0 size=N/A time=00:04:59.92 bitrate=N/A speed=18.2x    frame= 7430 fps=437 q=-0.0 size=N/A time=00:05:09.89 bitrate=N/A speed=18.2x    frame= 7691 fps=439 q=-0.0 size=N/A time=00:05:20.77 bitrate=N/A speed=18.3x    frame= 7936 fps=439 q=-0.0 size=N/A time=00:05:30.99 bitrate=N/A speed=18.3x    frame= 8154 fps=439 q=-0.0 size=N/A time=00:05:40.08 bitrate=N/A speed=18.3x    frame= 8400 fps=440 q=-0.0 size=N/A time=00:05:50.35 bitrate=N/A speed=18.4x    frame= 8643 fps=441 q=-0.0 size=N/A time=00:06:00.48 bitrate=N/A speed=18.4x    frame= 8887 fps=442 q=-0.0 size=N/A time=00:06:10.66 bitrate=N/A speed=18.4x    frame= 9096 fps=441 q=-0.0 size=N/A time=00:06:19.37 bitrate=N/A speed=18.4x    frame= 9336 fps=441 q=-0.0 size=N/A time=00:06:29.38 bitrate=N/A speed=18.4x    frame= 9599 fps=443 q=-0.0 size=N/A time=00:06:40.35 bitrate=N/A speed=18.5x    frame= 9826 fps=443 q=-0.0 size=N/A time=00:06:49.82 bitrate=N/A speed=18.5x    frame=10057 fps=443 q=-0.0 size=N/A time=00:06:59.46 bitrate=N/A speed=18.5x    frame=10291 fps=443 q=-0.0 size=N/A time=00:07:09.22 bitrate=N/A speed=18.5x    frame=10527 fps=444 q=-0.0 size=N/A time=00:07:19.06 bitrate=N/A speed=18.5x    frame=10770 fps=444 q=-0.0 size=N/A time=00:07:29.19 bitrate=N/A speed=18.5x    frame=11031 fps=446 q=-0.0 size=N/A time=00:07:40.08 bitrate=N/A speed=18.6x    frame=11273 fps=446 q=-0.0 size=N/A time=00:07:50.17 bitrate=N/A speed=18.6x    frame=11524 fps=447 q=-0.0 size=N/A time=00:08:00.64 bitrate=N/A speed=18.6x    frame=11737 fps=446 q=-0.0 size=N/A time=00:08:09.53 bitrate=N/A speed=18.6x    frame=11986 fps=447 q=-0.0 size=N/A time=00:08:19.91 bitrate=N/A speed=18.6x    frame=12243 fps=448 q=-0.0 size=N/A time=00:08:30.63 bitrate=N/A speed=18.7x    frame=12500 fps=449 q=-0.0 size=N/A time=00:08:41.35 bitrate=N/A speed=18.7x    frame=12739 fps=449 q=-0.0 size=N/A time=00:08:51.32 bitrate=N/A speed=18.7x    frame=12959 fps=449 q=-0.0 size=N/A time=00:09:00.49 bitrate=N/A speed=18.7x    frame=13173 fps=448 q=-0.0 size=N/A time=00:09:09.42 bitrate=N/A speed=18.7x    frame=13400 fps=448 q=-0.0 size=N/A time=00:09:18.89 bitrate=N/A speed=18.7x    frame=13614 fps=447 q=-0.0 size=N/A time=00:09:27.81 bitrate=N/A speed=18.7x    frame=13836 fps=447 q=-0.0 size=N/A time=00:09:37.07 bitrate=N/A speed=18.6x    frame=14059 fps=447 q=-0.0 size=N/A time=00:09:46.37 bitrate=N/A speed=18.6x    frame=14312 fps=448 q=-0.0 size=N/A time=00:09:56.92 bitrate=N/A speed=18.7x    frame=14520 fps=447 q=-0.0 size=N/A time=00:10:05.60 bitrate=N/A speed=18.6x    frame=14748 fps=447 q=-0.0 size=N/A time=00:10:15.11 bitrate=N/A speed=18.6x    frame=14943 fps=446 q=-0.0 size=N/A time=00:10:23.24 bitrate=N/A speed=18.6x    frame=15167 fps=446 q=-0.0 size=N/A time=00:10:32.59 bitrate=N/A speed=18.6x    frame=15407 fps=446 q=-0.0 size=N/A time=00:10:42.60 bitrate=N/A speed=18.6x    frame=15656 fps=446 q=-0.0 size=N/A time=00:10:52.98 bitrate=N/A speed=18.6x    frame=15888 fps=446 q=-0.0 size=N/A time=00:11:02.66 bitrate=N/A speed=18.6x    frame=16134 fps=447 q=-0.0 size=N/A time=00:11:12.92 bitrate=N/A speed=18.6x    frame=16403 fps=448 q=-0.0 size=N/A time=00:11:24.14 bitrate=N/A speed=18.7x    frame=16623 fps=448 q=-0.0 size=N/A time=00:11:33.31 bitrate=N/A speed=18.7x    frame=16827 fps=447 q=-0.0 size=N/A time=00:11:41.82 bitrate=N/A speed=18.6x    frame=17053 fps=447 q=-0.0 size=N/A time=00:11:51.25 bitrate=N/A speed=18.6x    frame=17264 fps=446 q=-0.0 size=N/A time=00:12:00.05 bitrate=N/A speed=18.6x    frame=17523 fps=447 q=-0.0 size=N/A time=00:12:10.85 bitrate=N/A speed=18.6x    frame=17753 fps=447 q=-0.0 size=N/A time=00:12:20.44 bitrate=N/A speed=18.6x    frame=17983 fps=447 q=-0.0 size=N/A time=00:12:30.04 bitrate=N/A speed=18.6x    frame=18235 fps=448 q=-0.0 size=N/A time=00:12:40.55 bitrate=N/A speed=18.7x    frame=18459 fps=447 q=-0.0 size=N/A time=00:12:49.89 bitrate=N/A speed=18.7x    frame=18675 fps=447 q=-0.0 size=N/A time=00:12:58.90 bitrate=N/A speed=18.6x    frame=18896 fps=447 q=-0.0 size=N/A time=00:13:08.12 bitrate=N/A speed=18.6x    frame=19122 fps=447 q=-0.0 size=N/A time=00:13:17.54 bitrate=N/A speed=18.6x    frame=19384 fps=447 q=-0.0 size=N/A time=00:13:28.47 bitrate=N/A speed=18.7x    frame=19641 fps=448 q=-0.0 size=N/A time=00:13:39.19 bitrate=N/A speed=18.7x    frame=19906 fps=449 q=-0.0 size=N/A time=00:13:50.24 bitrate=N/A speed=18.7x    frame=20123 fps=448 q=-0.0 size=N/A time=00:13:59.29 bitrate=N/A speed=18.7x    frame=20356 fps=448 q=-0.0 size=N/A time=00:14:09.01 bitrate=N/A speed=18.7x    frame=20578 fps=448 q=-0.0 size=N/A time=00:14:18.27 bitrate=N/A speed=18.7x    frame=20841 fps=449 q=-0.0 size=N/A time=00:14:29.24 bitrate=N/A speed=18.7x    frame=21102 fps=450 q=-0.0 size=N/A time=00:14:40.12 bitrate=N/A speed=18.8x    frame=21372 fps=450 q=-0.0 size=N/A time=00:14:51.39 bitrate=N/A speed=18.8x    frame=21650 fps=451 q=-0.0 size=N/A time=00:15:02.98 bitrate=N/A speed=18.8x    frame=21895 fps=452 q=-0.0 size=N/A time=00:15:13.20 bitrate=N/A speed=18.8x    frame=22144 fps=452 q=-0.0 size=N/A time=00:15:23.58 bitrate=N/A speed=18.8x    frame=22389 fps=452 q=-0.0 size=N/A time=00:15:33.80 bitrate=N/A speed=18.9x    frame=22652 fps=453 q=-0.0 size=N/A time=00:15:44.77 bitrate=N/A speed=18.9x    frame=22898 fps=453 q=-0.0 size=N/A time=00:15:55.03 bitrate=N/A speed=18.9x    frame=23171 fps=454 q=-0.0 size=N/A time=00:16:06.42 bitrate=N/A speed=18.9x    frame=23442 fps=454 q=-0.0 size=N/A time=00:16:17.72 bitrate=N/A speed=  19x    frame=23685 fps=455 q=-0.0 size=N/A time=00:16:27.86 bitrate=N/A speed=  19x    frame=23921 fps=455 q=-0.0 size=N/A time=00:16:37.70 bitrate=N/A speed=  19x    frame=24175 fps=455 q=-0.0 size=N/A time=00:16:48.29 bitrate=N/A speed=  19x    frame=24440 fps=456 q=-0.0 size=N/A time=00:16:59.35 bitrate=N/A speed=  19x    frame=24696 fps=456 q=-0.0 size=N/A time=00:17:10.02 bitrate=N/A speed=  19x    frame=24943 fps=456 q=-0.0 size=N/A time=00:17:20.33 bitrate=N/A speed=  19x    frame=25176 fps=456 q=-0.0 size=N/A time=00:17:30.04 bitrate=N/A speed=  19x    frame=25428 fps=456 q=-0.0 size=N/A time=00:17:40.55 bitrate=N/A speed=  19x    frame=25675 fps=457 q=-0.0 size=N/A time=00:17:50.86 bitrate=N/A speed=  19x    frame=25930 fps=457 q=-0.0 size=N/A time=00:18:01.49 bitrate=N/A speed=19.1x    frame=26154 fps=457 q=-0.0 size=N/A time=00:18:10.83 bitrate=N/A speed=  19x    frame=26383 fps=457 q=-0.0 size=N/A time=00:18:20.39 bitrate=N/A speed=  19x    frame=26643 fps=457 q=-0.0 size=N/A time=00:18:31.23 bitrate=N/A speed=19.1x    frame=26888 fps=457 q=-0.0 size=N/A time=00:18:41.45 bitrate=N/A speed=19.1x    frame=27139 fps=457 q=-0.0 size=N/A time=00:18:51.92 bitrate=N/A speed=19.1x    frame=27381 fps=457 q=-0.0 size=N/A time=00:19:02.01 bitrate=N/A speed=19.1x    frame=27624 fps=458 q=-0.0 size=N/A time=00:19:12.15 bitrate=N/A speed=19.1x    frame=27822 fps=457 q=-0.0 size=N/A time=00:19:20.40 bitrate=N/A speed=19.1x    frame=28056 fps=457 q=-0.0 size=N/A time=00:19:30.16 bitrate=N/A speed=19.1x    frame=28295 fps=457 q=-0.0 size=N/A time=00:19:40.13 bitrate=N/A speed=19.1x    frame=28528 fps=457 q=-0.0 size=N/A time=00:19:49.85 bitrate=N/A speed=19.1x    frame=28761 fps=457 q=-0.0 size=N/A time=00:19:59.57 bitrate=N/A speed=19.1x    frame=29003 fps=457 q=-0.0 size=N/A time=00:20:09.66 bitrate=N/A speed=19.1x    frame=29235 fps=457 q=-0.0 size=N/A time=00:20:19.34 bitrate=N/A speed=19.1x    frame=29480 fps=457 q=-0.0 size=N/A time=00:20:29.56 bitrate=N/A speed=19.1x    frame=29727 fps=457 q=-0.0 size=N/A time=00:20:39.86 bitrate=N/A speed=19.1x    frame=29961 fps=457 q=-0.0 size=N/A time=00:20:49.62 bitrate=N/A speed=19.1x    frame=30205 fps=457 q=-0.0 size=N/A time=00:20:59.80 bitrate=N/A speed=19.1x    frame=30464 fps=458 q=-0.0 size=N/A time=00:21:10.60 bitrate=N/A speed=19.1x    frame=30703 fps=458 q=-0.0 size=N/A time=00:21:20.57 bitrate=N/A speed=19.1x    frame=30913 fps=457 q=-0.0 size=N/A time=00:21:29.32 bitrate=N/A speed=19.1x    frame=31109 fps=457 q=-0.0 size=N/A time=00:21:37.50 bitrate=N/A speed=  19x    frame=31288 fps=456 q=-0.0 size=N/A time=00:21:44.97 bitrate=N/A speed=  19x    frame=31486 fps=455 q=-0.0 size=N/A time=00:21:53.22 bitrate=N/A speed=  19x    frame=31679 fps=455 q=-0.0 size=N/A time=00:22:01.27 bitrate=N/A speed=  19x    frame=31871 fps=454 q=-0.0 size=N/A time=00:22:09.28 bitrate=N/A speed=18.9x    frame=32062 fps=454 q=-0.0 size=N/A time=00:22:17.25 bitrate=N/A speed=18.9x    frame=32255 fps=453 q=-0.0 size=N/A time=00:22:25.30 bitrate=N/A speed=18.9x    frame=32448 fps=452 q=-0.0 size=N/A time=00:22:33.35 bitrate=N/A speed=18.9x    frame=32641 fps=452 q=-0.0 size=N/A time=00:22:41.40 bitrate=N/A speed=18.8x    frame=32838 fps=451 q=-0.0 size=N/A time=00:22:49.61 bitrate=N/A speed=18.8x    frame=33043 fps=451 q=-0.0 size=N/A time=00:22:58.16 bitrate=N/A speed=18.8x    frame=33290 fps=451 q=-0.0 size=N/A time=00:23:08.47 bitrate=N/A speed=18.8x    frame=33492 fps=451 q=-0.0 size=N/A time=00:23:16.89 bitrate=N/A speed=18.8x    frame=33707 fps=451 q=-0.0 size=N/A time=00:23:25.86 bitrate=N/A speed=18.8x    frame=33936 fps=450 q=-0.0 size=N/A time=00:23:35.41 bitrate=N/A speed=18.8x    frame=34141 fps=450 q=-0.0 size=N/A time=00:23:43.96 bitrate=N/A speed=18.8x    [Parsed_ssim_10 @ 000001d7a4094ec0] SSIM Y:0.995126 (23.120917) U:0.993403 (21.806275) V:0.993925 (22.164311) All:0.994638 (22.707038)
[out#0/null @ 000001d7972f5ec0] video:14697KiB audio:267516KiB subtitle:0KiB other streams:0KiB global headers:0KiB muxing overhead: unknown
frame=34204 fps=450 q=-0.0 Lsize=N/A time=00:23:46.59 bitrate=N/A speed=18.8x    
